<svg xmlns="http://www.w3.org/2000/svg" viewBox="0 0 100 100" preserveAspectRatio="xMidYMid" width="800" height="800" style="shape-rendering: auto; display: block; background: transparent;" xmlns:xlink="http://www.w3.org/1999/xlink"><g><g transform="rotate(0 50 50)">
  <rect fill="#f9607e" height="32" width="7" ry="16" rx="3.5" y="0" x="46.5">
    <animate repeatCount="indefinite" begin="-0.32819166393173616s" dur="0.36101083032490977s" keyTimes="0;1" values="1;0" attributeName="opacity"></animate>
  </rect>
</g><g transform="rotate(32.72727272727273 50 50)">
  <rect fill="#f9607e" height="32" width="7" ry="16" rx="3.5" y="0" x="46.5">
    <animate repeatCount="indefinite" begin="-0.29537249753856254s" dur="0.36101083032490977s" keyTimes="0;1" values="1;0" attributeName="opacity"></animate>
  </rect>
</g><g transform="rotate(65.45454545454545 50 50)">
  <rect fill="#f9607e" height="32" width="7" ry="16" rx="3.5" y="0" x="46.5">
    <animate repeatCount="indefinite" begin="-0.2625533311453889s" dur="0.36101083032490977s" keyTimes="0;1" values="1;0" attributeName="opacity"></animate>
  </rect>
</g><g transform="rotate(98.18181818181819 50 50)">
  <rect fill="#f9607e" height="32" width="7" ry="16" rx="3.5" y="0" x="46.5">
    <animate repeatCount="indefinite" begin="-0.2297341647522153s" dur="0.36101083032490977s" keyTimes="0;1" values="1;0" attributeName="opacity"></animate>
  </rect>
</g><g transform="rotate(130.9090909090909 50 50)">
  <rect fill="#f9607e" height="32" width="7" ry="16" rx="3.5" y="0" x="46.5">
    <animate repeatCount="indefinite" begin="-0.1969149983590417s" dur="0.36101083032490977s" keyTimes="0;1" values="1;0" attributeName="opacity"></animate>
  </rect>
</g><g transform="rotate(163.63636363636363 50 50)">
  <rect fill="#f9607e" height="32" width="7" ry="16" rx="3.5" y="0" x="46.5">
    <animate repeatCount="indefinite" begin="-0.16409583196586808s" dur="0.36101083032490977s" keyTimes="0;1" values="1;0" attributeName="opacity"></animate>
  </rect>
</g><g transform="rotate(196.36363636363637 50 50)">
  <rect fill="#f9607e" height="32" width="7" ry="16" rx="3.5" y="0" x="46.5">
    <animate repeatCount="indefinite" begin="-0.13127666557269446s" dur="0.36101083032490977s" keyTimes="0;1" values="1;0" attributeName="opacity"></animate>
  </rect>
</g><g transform="rotate(229.0909090909091 50 50)">
  <rect fill="#f9607e" height="32" width="7" ry="16" rx="3.5" y="0" x="46.5">
    <animate repeatCount="indefinite" begin="-0.09845749917952085s" dur="0.36101083032490977s" keyTimes="0;1" values="1;0" attributeName="opacity"></animate>
  </rect>
</g><g transform="rotate(261.8181818181818 50 50)">
  <rect fill="#f9607e" height="32" width="7" ry="16" rx="3.5" y="0" x="46.5">
    <animate repeatCount="indefinite" begin="-0.06563833278634723s" dur="0.36101083032490977s" keyTimes="0;1" values="1;0" attributeName="opacity"></animate>
  </rect>
</g><g transform="rotate(294.54545454545456 50 50)">
  <rect fill="#f9607e" height="32" width="7" ry="16" rx="3.5" y="0" x="46.5">
    <animate repeatCount="indefinite" begin="-0.032819166393173616s" dur="0.36101083032490977s" keyTimes="0;1" values="1;0" attributeName="opacity"></animate>
  </rect>
</g><g transform="rotate(327.27272727272725 50 50)">
  <rect fill="#f9607e" height="32" width="7" ry="16" rx="3.5" y="0" x="46.5">
    <animate repeatCount="indefinite" begin="0s" dur="0.36101083032490977s" keyTimes="0;1" values="1;0" attributeName="opacity"></animate>
  </rect>
</g><g></g></g><!-- [ldio] generated by https://loading.io --></svg>